<svg xmlns="http://www.w3.org/2000/svg" xmlns:xlink="http://www.w3.org/1999/xlink" aria-hidden="true" role="img" class="iconify iconify--logos" width="31.88" height="32" preserveAspectRatio="xMidYMid meet" viewBox="0 0 256 257"><defs><linearGradient id="IconifyId1813088fe1fbc01fb466" x1="-.828%" x2="57.636%" y1="7.652%" y2="78.411%"><stop offset="0%" stop-color="#41D1FF"/><stop offset="100%" stop-color="#BD34FE"/></linearGradient><linearGradient id="IconifyId1813088fe1fbc01fb467" x1="43.376%" x2="50.316%" y1="2.242%" y2="89.03%"><stop offset="0%" stop-color="#FFEA83"/><stop offset="8.333%" stop-color="#FFDD35"/><stop offset="100%" stop-color="#FFA800"/></linearGradient></defs><path fill="url(#IconifyId1813088fe1fbc01fb466)" d="M255.153 37.342L134.897 252.9c-2.38 4.12-8.581 4.12-10.961 0L.847 37.342c-2.38-4.122 1.219-9.322 6.42-9.322h241.466c5.2 0 8.8 5.2 6.42 9.322Z"/><path fill="url(#IconifyId1813088fe1fbc01fb467)" d="m182.744 28.02l-55.29-25.64c-2.38-1.109-5.18-1.109-7.56 0l-55.29 25.64c-2.38 1.109-3.98 4.12-3.18 6.82l25.64 88.05c1.11 3.72 4.98 5.82 8.76 4.72l40.45-12.06c2.38-.71 3.98-3.32 3.98-5.82V32.74c0-2.5-1.6-5.11-3.98-6.21Z"/></svg>
